<svg xmlns="http://www.w3.org/2000/svg" width="13.808" height="15.337" viewBox="0 0 13.808 15.337"><defs><style>.a{fill:#ecf2ff;}</style></defs><g transform="translate(-604.192 -147.663)"><path class="a" d="M91.5-1192a6.506,6.506,0,0,1-6.144-4.371l1.879-.689A4.5,4.5,0,0,0,91.5-1194a4.505,4.505,0,0,0,4.5-4.5,4.505,4.505,0,0,0-4.5-4.5,4.5,4.5,0,0,0-2.084.511l-1.7-1.294A6.454,6.454,0,0,1,91.5-1205a6.507,6.507,0,0,1,6.5,6.5A6.508,6.508,0,0,1,91.5-1192Z" transform="translate(520 1355)"/><g transform="matrix(0.809, -0.588, 0.588, 0.809, -326.029, 665.993)"><path class="a" d="M5.45,4.834h.673V7.222l4.439-3.166L6.122.891V3.242h-.6C4.087,3.242,3.249,4.834,5.45,4.834Z" transform="translate(1063.984 139.129) rotate(-163)"/></g><circle class="a" cx="1.5" cy="1.5" r="1.5" transform="translate(610 155)"/></g></svg>