<svg xmlns="http://www.w3.org/2000/svg" xmlns:xlink="http://www.w3.org/1999/xlink" width="17" height="17" viewBox="0 0 17 17"><defs><style>.a{fill:#fff;}.b{clip-path:url(#a);}.c,.d{fill:#ecf2ff;}.c{opacity:0.6;}</style><clipPath id="a"><rect class="a" width="17" height="17" transform="translate(1088 270)"/></clipPath></defs><g class="b" transform="translate(-1088 -270)"><g transform="translate(43.484 138)"><path class="c" d="M7.5,7.5V0H10V10H0V7.5Z" transform="translate(1047.516 139)"/><path class="d" d="M0,0H10V10H0Z" transform="translate(1044.516 136)"/><path class="d" d="M0,.359A3.88,3.88,0,0,0,.711,2.072,3.754,3.754,0,0,0,3.75,3.326h.463V4.969L7.267,2.791,4.213.613V2.231H3.8A2.936,2.936,0,0,1,1.66,1.492,2.6,2.6,0,0,1,.886,0Z" transform="matrix(-0.906, -0.423, 0.423, -0.906, 1059.866, 139.197)"/></g></g></svg>