<svg xmlns="http://www.w3.org/2000/svg" width="21.821" height="12.75" viewBox="0 0 21.821 12.75"><defs><style>.a{fill:#ecf2ff;}.b{opacity:0.6;}</style></defs><g transform="translate(-1188.537 -327.25)"><g transform="translate(1188.537 324)"><g transform="translate(12.358 4.516)"><path class="a" d="M0,.807a42.437,42.437,0,0,0,5.368,0A18.406,18.406,0,0,0,9.463,0L8.612,8.807a10.841,10.841,0,0,1-3.774,1.452A19.3,19.3,0,0,1,0,10.5Z" transform="translate(0)"/></g><g class="b" transform="translate(0 4.516)"><path class="a" d="M5,.807a41.249,41.249,0,0,1-5.3,0A19.729,19.729,0,0,1-4.463,0l1.157,8.8a10.644,10.644,0,0,0,3.774,1.31A22.32,22.32,0,0,0,5,10.486Z" transform="translate(4.463)"/></g><g transform="translate(10.41 0)"><rect class="a" width="1" height="3" transform="translate(0 3.25)"/><rect class="a" width="1" height="3" transform="translate(0 6.5)"/><rect class="a" width="1" height="3" transform="translate(0 9.75)"/><rect class="a" width="1" height="3" transform="translate(0 13)"/></g></g></g></svg>