<svg xmlns="http://www.w3.org/2000/svg" width="14.316" height="14.777" viewBox="0 0 14.316 14.777"><defs><style>.a{fill:#ecf2ff;}</style></defs><g transform="translate(-1125.125 -196.684)"><path class="a" d="M13.477,11.477H11.934V1.543H1V0H13.477V11.476Z" transform="translate(1138.602 211.461) rotate(180)"/><path class="a" d="M11.127,11.127H0V0H11.127V11.126ZM2.016,1.062c-.407,0-.774.007-.778.007V9.661h2.2C3.5,9.534,4.967,6.588,6.508,6.469c.471-.036,1.009-.055,1.6-.055,1.01,0,1.828.054,1.836.055v-5.4H9.809l-1.523,0H7.5l-3,0c-1.042,0-1.669,0-1.864.006C2.466,1.064,2.257,1.062,2.016,1.062Zm2.2,4.228a1.48,1.48,0,0,1-1.265-.955,1.353,1.353,0,0,1,.637-1.51l.583-.26.072-.018.006,0,.021.014A.614.614,0,0,1,4.5,2.527a1.4,1.4,0,0,1,.951.464,1.076,1.076,0,0,1,.3.82A1.28,1.28,0,0,1,5.5,4.8a1.668,1.668,0,0,1-1.229.485Z" transform="translate(1128.314 196.684)"/></g></svg>