<svg xmlns="http://www.w3.org/2000/svg" width="18" height="18" viewBox="0 0 18 18"><defs><style>.a,.b{fill:#ecf2ff;}.b{opacity:0.5;}</style></defs><g transform="translate(-122 -138)"><path class="a" d="M-1405-934a8.009,8.009,0,0,1-8-8,8.009,8.009,0,0,1,8-8,8.009,8.009,0,0,1,8,8A8.009,8.009,0,0,1-1405-934Zm0-15a7.008,7.008,0,0,0-7,7,7.008,7.008,0,0,0,7,7,7.008,7.008,0,0,0,7-7A7.008,7.008,0,0,0-1405-949Z" transform="translate(1536 1089)"/><circle class="b" cx="7" cy="7" r="7" transform="translate(124 140)"/><rect class="a" width="3" height="3" transform="translate(122 145)"/><rect class="a" width="3" height="3" transform="translate(129.5 156) rotate(-90)"/><rect class="a" width="3" height="3" transform="translate(137 145)"/><rect class="a" width="3" height="3" transform="translate(129.5 141) rotate(-90)"/></g></svg>