<svg xmlns="http://www.w3.org/2000/svg" width="16" height="16" viewBox="0 0 16 16"><defs><style>.a{fill:none;}.b{fill:#afc9ff;}</style></defs><g transform="translate(0 16) rotate(-90)"><path class="a" d="M0,0H16V16H0Z"/><path class="b" d="M12.624,13H3.875a1.291,1.291,0,0,0-1.292,1.292v.749a1.291,1.291,0,0,0,1.292,1.292h8.749a1.291,1.291,0,0,0,1.292-1.292v-.749A1.291,1.291,0,0,0,12.624,13Z" transform="translate(-1.458 -1.458)"/><path class="b" d="M15.624,13H3.875a1.291,1.291,0,0,0-1.292,1.292v.749a1.291,1.291,0,0,0,1.292,1.292H15.624a1.291,1.291,0,0,0,1.292-1.292v-.749A1.291,1.291,0,0,0,15.624,13Z" transform="translate(-1.458 -6.458)"/><path class="b" d="M9.624,13H3.875a1.291,1.291,0,0,0-1.292,1.292v.749a1.291,1.291,0,0,0,1.292,1.292H9.624a1.291,1.291,0,0,0,1.292-1.292v-.749A1.291,1.291,0,0,0,9.624,13Z" transform="translate(-1.458 -11.493)"/></g></svg>