<svg xmlns="http://www.w3.org/2000/svg" xmlns:xlink="http://www.w3.org/1999/xlink" width="17" height="17" viewBox="0 0 17 17"><defs><style>.a{fill:#fff;}.b{clip-path:url(#a);}.c,.d{fill:#ecf2ff;}.d{opacity:0.6;}</style><clipPath id="a"><rect class="a" width="17" height="17" transform="translate(1129 270)"/></clipPath></defs><g class="b" transform="translate(-1129 -270)"><g transform="translate(84.484 138)"><rect class="c" width="10" height="10" transform="translate(1047.641 138.747)"/><path class="d" d="M2.857,10H0V0H10V2.857H2.857V10Z" transform="translate(1044.516 135.581)"/><path class="c" d="M0,4.779A4.022,4.022,0,0,1,.737,3a3.891,3.891,0,0,1,3.15-1.3h.48V0L7.533,2.258,4.367,4.515V2.838H3.941A3.043,3.043,0,0,0,1.721,3.6a2.7,2.7,0,0,0-.8,1.547Z" transform="translate(1057.668 130.555) rotate(52)"/></g></g></svg>