<svg xmlns="http://www.w3.org/2000/svg" width="12.029" height="15" viewBox="0 0 12.029 15"><path d="M96.229,77.971a4.038,4.038,0,0,0-1.308.21,3.035,3.035,0,0,0-1.017.581,4.128,4.128,0,0,0-.791.92,9.528,9.528,0,0,0-.678,1.292h2.277v3H91.256l-.823,1.873a11.167,11.167,0,0,1-1.066,1.712A6.323,6.323,0,0,1,84.2,90V87a3.749,3.749,0,0,0,1.647-.339,3.591,3.591,0,0,0,1.179-.969,8.488,8.488,0,0,0,.888-1.582,18.4,18.4,0,0,0,.872-2.131l.969-2.357a10.089,10.089,0,0,1,1.292-2.18A6.279,6.279,0,0,1,96.213,75v2.971Z" transform="translate(-84.2 -75)" fill="#ecf2ff"/></svg>