<svg xmlns="http://www.w3.org/2000/svg" width="12" height="12" viewBox="0 0 12 12"><defs><style>.a{fill:#ecf2ff;}</style></defs><path class="a" d="M-34,12H-46V0h12V12ZM-43.825,1.145c-.439,0-.835.008-.839.008v9.265h2.373c.067-.137,1.647-3.314,3.309-3.442.507-.039,1.088-.059,1.726-.059,1.089,0,1.972.058,1.981.059V1.153h-.146l-1.643,0h-.843c-1.053,0-2.248,0-3.239,0-1.124,0-1.8,0-2.01.006C-43.341,1.148-43.566,1.145-43.825,1.145Zm2.377,4.56a1.6,1.6,0,0,1-1.364-1.03,1.459,1.459,0,0,1,.687-1.628l.628-.281.077-.02.006,0,.022.015a.662.662,0,0,1,.239-.041,1.513,1.513,0,0,1,1.026.5,1.16,1.16,0,0,1,.329.885,1.38,1.38,0,0,1-.268,1.071,1.8,1.8,0,0,1-1.326.523Z" transform="translate(46)"/></svg>