<svg xmlns="http://www.w3.org/2000/svg" width="13.158" height="11.197" viewBox="0 0 13.158 11.197"><defs><style>.a{fill:#9ab1e1;}</style></defs><g transform="translate(-0.542 -1.625)"><path class="a" d="M8.578,8.357a2.97,2.97,0,0,1,2.99,2.947,2.864,2.864,0,0,1-.212,1.075L13.1,14.1a7,7,0,0,0,2.054-2.8A7.1,7.1,0,0,0,6.195,7.3l1.292,1.27a3.044,3.044,0,0,1,1.091-.209ZM2.6,6.751,3.961,8.095l.272.268A6.99,6.99,0,0,0,2,11.3a7.115,7.115,0,0,0,9.2,3.922l.254.25L13.2,17.2l.762-.748L3.36,6,2.6,6.751ZM5.9,10.007l.924.91a1.842,1.842,0,0,0-.045.386,1.782,1.782,0,0,0,1.794,1.768,1.869,1.869,0,0,0,.389-.044l.924.91a2.975,2.975,0,0,1-4.3-2.634A2.887,2.887,0,0,1,5.9,10.007Zm2.574-.463L10.363,11.4l.009-.1A1.782,1.782,0,0,0,8.578,9.536Z" transform="translate(-1.458 -4.375)"/></g></svg>