<svg xmlns="http://www.w3.org/2000/svg" width="11.688" height="17.734" viewBox="0 0 11.688 17.734"><defs><style>.a,.b{fill:#ecf2ff;}.a{fill-rule:evenodd;}.b{opacity:0.6;}</style></defs><g transform="translate(-5.562 -0.901)"><path class="a" d="M13.415,8.1a.833.833,0,1,0-1.661,0v2.712H11.2V5.107a.834.834,0,1,0-1.661,0v7.06C8.136,9.028,6.9,8.518,6.287,9.189s.949,2.469,3.114,6.428c.976,1.784,2.21,3.017,4.291,3.017a4.342,4.342,0,0,0,4.151-4.511V9.316a.833.833,0,1,0-1.661,0v1.5H15.63V8.706a.833.833,0,1,0-1.661,0v1.509h-.554V8.1Z" transform="translate(-0.594 0)"/><path class="b" d="M3.15,0A3.15,3.15,0,1,1,0,3.15,3.15,3.15,0,0,1,3.15,0Z" transform="translate(6.611 0.901)"/></g></svg>