<svg xmlns="http://www.w3.org/2000/svg" width="10" height="13.124" viewBox="0 0 10 13.124"><defs><style>.a{fill:#9ab1e1;}</style></defs><g transform="translate(-10.5 24.5)"><path class="a" d="M8.749,13.124H1.25A1.251,1.251,0,0,1,0,11.874V5.625a1.251,1.251,0,0,1,1.25-1.25h.624V3.124a3.125,3.125,0,0,1,6.25,0V4.375h.624A1.252,1.252,0,0,1,10,5.625v6.249A1.252,1.252,0,0,1,8.749,13.124ZM5,7.5a1.25,1.25,0,1,0,1.25,1.25A1.251,1.251,0,0,0,5,7.5ZM3.124,3.124V4.375H6.937V3.124a1.937,1.937,0,1,0-3.874,0Z" transform="translate(10.5 -24.5)"/></g></svg>