<svg xmlns="http://www.w3.org/2000/svg" width="16" height="16" viewBox="0 0 16 16"><defs><style>.a{fill:none;}.b{fill:#afc9ff;}</style></defs><path class="a" d="M0,0H16V16H0Z"/><path class="b" d="M5.292,6.583H4v9.041a1.291,1.291,0,0,0,1.292,1.292h9.041V15.624H5.292ZM15.624,4H7.875A1.291,1.291,0,0,0,6.583,5.292v7.749a1.291,1.291,0,0,0,1.292,1.292h7.749a1.291,1.291,0,0,0,1.292-1.292V5.292A1.291,1.291,0,0,0,15.624,4Zm-.646,5.812H12.4V12.4H11.1V9.812H8.52V8.52H11.1V5.937H12.4V8.52h2.583Z" transform="translate(-2.458 -2.458)"/></svg>