<svg xmlns="http://www.w3.org/2000/svg" width="19.799" height="19.799" viewBox="0 0 19.799 19.799"><defs><style>.a{fill:#c80000;}</style></defs><g transform="translate(-724.785 357.089) rotate(-45)"><path class="a" d="M2597-2703a7.008,7.008,0,0,1-7-7,7.008,7.008,0,0,1,7-7,7.008,7.008,0,0,1,7,7A7.008,7.008,0,0,1,2597-2703Zm0-12a5.006,5.006,0,0,0-5,5,5.006,5.006,0,0,0,5,5,5.006,5.006,0,0,0,5-5A5.006,5.006,0,0,0,2597-2715Z" transform="translate(-1832 2984)"/><rect class="a" width="10" height="2" transform="translate(760 273)"/></g></svg>