<svg xmlns="http://www.w3.org/2000/svg" width="18" height="14.21" viewBox="0 0 18 14.21"><defs><style>.a{fill:#ecf2ff;}</style></defs><path class="a" d="M-28-806.79H-46v-12.315h10.125L-33.16-821H-28v14.209Zm-13.264-10.17v8.276h8.275v-8.276Zm2.558,7.185h-1.636v-6.39h.006c.111,0,.333-.005.572-.005.179,0,.335,0,.462.005.155,0,.648,0,1.386,0l2.233,0h1.815v4.017c-.01,0-.614-.041-1.366-.041-.442,0-.843.014-1.19.041-1.151.088-2.271,2.35-2.282,2.372Zm.6-5.291h0l-.054.014-.433.194a1,1,0,0,0-.473,1.123,1.1,1.1,0,0,0,.94.71.285.285,0,0,0,.039,0,1.241,1.241,0,0,0,.915-.361.953.953,0,0,0,.185-.738.8.8,0,0,0-.228-.61,1.04,1.04,0,0,0-.707-.345.458.458,0,0,0-.165.028l-.01-.006-.006,0,0,0Z" transform="translate(46 821)"/></svg>