<svg xmlns="http://www.w3.org/2000/svg" width="16" height="16" viewBox="0 0 16 16"><g opacity="0.65"><path d="M0,0H16V16H0Z" fill="none"/><path d="M13.767,2H9.884V3.317h3.884Zm-2.589,8.559h1.295V6.608H11.178ZM16.372,6.2l.922-.938a7.265,7.265,0,0,0-.916-.932l-.922.938a5.736,5.736,0,0,0-3.634-1.3A5.872,5.872,0,0,0,6,9.9a5.826,5.826,0,1,0,11.651,0A5.949,5.949,0,0,0,16.372,6.2Zm-4.547,8.305A4.609,4.609,0,1,1,16.356,9.9,4.571,4.571,0,0,1,11.825,14.509Z" transform="translate(-3.825 -1.275)" fill="#9ab1e1"/></g></svg>