<svg xmlns="http://www.w3.org/2000/svg" width="12.397" height="11.24" viewBox="0 0 12.397 11.24"><defs><style>.a{fill:#9ab1e1;}</style></defs><g transform="translate(-341.765 -625.818)"><path class="a" d="M-2752.255-1806.688h0l-2.745-3.271,5.667-4.754a2,2,0,0,1,1.285-.468,2,2,0,0,1,1.533.715l.174.207a2,2,0,0,1-.247,2.818l-5.665,4.754Zm4.189-7.439a1.139,1.139,0,0,0-.73.266l-4.8,4.024,1.46,1.74,4.8-4.024a1.137,1.137,0,0,0,.14-1.6A1.133,1.133,0,0,0-2748.065-1814.127Z" transform="translate(3100.037 2441)"/><path class="a" d="M2.136,0,4.271,3.417H0Z" transform="translate(344.51 637.057) rotate(-130)"/></g></svg>