<svg xmlns="http://www.w3.org/2000/svg" width="9.516" height="10.594" viewBox="0 0 9.516 10.594"><defs><style>.a{fill:#ecf2ff;}</style></defs><path class="a" d="M10.094-10.594v2.867H9.813a4.526,4.526,0,0,0-.555-1.426,2.136,2.136,0,0,0-.836-.691,2.676,2.676,0,0,0-1.039-.141H6.594v8.172A3.338,3.338,0,0,0,6.684-.8a.806.806,0,0,0,.352.355,1.422,1.422,0,0,0,.715.152H8.1V0H2.555V-.289h.352a1.465,1.465,0,0,0,.742-.164.747.747,0,0,0,.32-.375,3.219,3.219,0,0,0,.086-.984V-9.984H3.289a2.227,2.227,0,0,0-1.555.453,3,3,0,0,0-.859,1.8h-.3v-2.867Z" transform="translate(-0.578 10.594)"/></svg>