<svg xmlns="http://www.w3.org/2000/svg" width="10" height="13.133" viewBox="0 0 10 13.133"><defs><style>.a{fill:#9ab1e1;}</style></defs><g transform="translate(-2 -0.494)"><path class="a" d="M13,12a1.25,1.25,0,1,0-1.25-1.25A1.25,1.25,0,0,0,13,12Zm3.75-5.625h-.625V5.127A3.126,3.126,0,0,0,13,2a2.509,2.509,0,0,0-2.176.947l.423.514.369.309A2.671,2.671,0,0,1,13,3.189a1.939,1.939,0,0,1,1.938,1.938v1.25H9.25A1.25,1.25,0,0,0,8,7.627v6.25a1.25,1.25,0,0,0,1.25,1.25h7.5A1.25,1.25,0,0,0,18,13.877V7.627A1.25,1.25,0,0,0,16.75,6.377Zm0,7.5H9.25V7.627h7.5Z" transform="translate(-6 -1.5)"/></g></svg>