<svg xmlns="http://www.w3.org/2000/svg" width="16" height="12.001" viewBox="0 0 16 12.001"><defs><style>.a{fill:#ecf2ff;}</style></defs><path class="a" d="M-30,12H-46V0h1.37A.4.4,0,0,0-45,.4V1.6a.4.4,0,0,0,.4.4h1.2a.4.4,0,0,0,.4-.4V.4a.4.4,0,0,0-.369-.4h10.731A.4.4,0,0,0-33,.4V1.6a.4.4,0,0,0,.4.4h1.2a.4.4,0,0,0,.4-.4V.4a.4.4,0,0,0-.361-.4L-30,0V12Zm-2.6-3a.4.4,0,0,0-.4.4v1.2a.4.4,0,0,0,.4.4h1.2a.4.4,0,0,0,.4-.4V9.4a.4.4,0,0,0-.4-.4Zm-12,0a.4.4,0,0,0-.4.4v1.2a.4.4,0,0,0,.4.4h1.2a.4.4,0,0,0,.4-.4V9.4a.4.4,0,0,0-.4-.4Zm4.59-6.462v6.25l5-3.034ZM-32.6,6a.4.4,0,0,0-.4.4V7.6a.4.4,0,0,0,.4.4h1.2a.4.4,0,0,0,.4-.4V6.4a.4.4,0,0,0-.4-.4Zm-12,0a.4.4,0,0,0-.4.4V7.6a.4.4,0,0,0,.4.4h1.2a.4.4,0,0,0,.4-.4V6.4a.4.4,0,0,0-.4-.4Zm12-3a.4.4,0,0,0-.4.4V4.6a.4.4,0,0,0,.4.4h1.2a.4.4,0,0,0,.4-.4V3.4a.4.4,0,0,0-.4-.4Zm-12,0a.4.4,0,0,0-.4.4V4.6a.4.4,0,0,0,.4.4h1.2a.4.4,0,0,0,.4-.4V3.4a.4.4,0,0,0-.4-.4Z" transform="translate(46 0.001)"/></svg>