<svg xmlns="http://www.w3.org/2000/svg" width="20.039" height="14" viewBox="0 0 20.039 14"><defs><style>.a{fill:#ecf2ff;fill-rule:evenodd;}</style></defs><path class="a" d="M4.677,6.8,3.227,5.414,1.714,6.927l1.45,1.387ZM9.155,3.9H6.948V6.107H9.155ZM2.47,10.522H.2v2.207H2.47Zm-.757,5.8L3.227,17.9l1.45-1.387L3.1,15Zm10.153-6.117A4.135,4.135,0,0,0,8.02,7.558a4.078,4.078,0,0,0-4.1,4.036,4.02,4.02,0,0,0,2.712,3.784C7.452,11.846,9.344,10.585,11.867,10.206Zm2.523-3.279L12.813,5.414,11.425,6.8,13,8.314Zm-1.918,4.165c-3.09,0-5.179,3.551-5.179,6.578h9.23c5.262-.18,4.188-6.242,1.376-6.97a3.979,3.979,0,0,0-3.508.894A10.925,10.925,0,0,0,12.471,11.092Z" transform="translate(-0.2 -3.9)"/></svg>