<svg xmlns="http://www.w3.org/2000/svg" width="14.316" height="14.777" viewBox="0 0 14.316 14.777"><defs><style>.a{fill:#ecf2ff;}</style></defs><g transform="translate(-1125.125 -196.684)"><path class="a" d="M13.477,11.477H11.934V1.543H1V0H13.477V11.476Z" transform="translate(1138.602 211.461) rotate(180)"/><path class="a" d="M-2707.748-930.873h-11.128V-942h11.128v11.127Zm-6.559-8.624v5.812h2.192a2.773,2.773,0,0,0,1.374-.336,2.4,2.4,0,0,0,.951-1,3.34,3.34,0,0,0,.351-1.572,3.325,3.325,0,0,0-.351-1.57,2.381,2.381,0,0,0-.953-1,2.8,2.8,0,0,0-1.379-.334Zm-2.269,0v5.812h1.478V-939.5Zm4.452,4.28h-.7v-2.749h.712a1.051,1.051,0,0,1,.873.379,1.55,1.55,0,0,1,.3.991,1.524,1.524,0,0,1-.321.977A1.05,1.05,0,0,1-2712.124-935.216Z" transform="translate(3847.189 1138.684)"/></g></svg>