<svg xmlns="http://www.w3.org/2000/svg" width="18.573" height="18.147" viewBox="0 0 18.573 18.147"><defs><style>.a{fill:#ecf2ff;}</style></defs><g transform="translate(-2.595 -1.07)"><path class="a" d="M3.754,8.134l-.519.515a1.161,1.161,0,0,1-1.63,0,1.128,1.128,0,0,1,0-1.6L3.515,5.151c.4-.392,1.14-.97,1.683-.432a.635.635,0,0,0,.9-.9C5.17,2.9,3.807,3.071,2.62,4.249L.71,6.143a2.4,2.4,0,0,0,0,3.407,2.435,2.435,0,0,0,3.42,0l.519-.515a.635.635,0,1,0-.9-.9ZM9.541.775A2.269,2.269,0,0,0,6.248.648L5.6,1.29a.635.635,0,1,0,.9.9l.646-.641a1.029,1.029,0,0,1,1.5.126,1.128,1.128,0,0,1,0,1.6L6.609,5.3c-.931.924-1.368.49-1.555.305a.635.635,0,1,0-.9.9,2,2,0,0,0,1.427.635A2.8,2.8,0,0,0,7.5,6.2L9.541,4.182a2.4,2.4,0,0,0,0-3.407Z" transform="translate(13.918 4.719) rotate(45)"/><path class="a" d="M-6571.765-1122.79h-2.427v-11.388h8.809l2.361-1.752h4.489v5.93h-9.3a4.69,4.69,0,0,0-4.5,4.849,5.16,5.16,0,0,0,.567,2.359Z" transform="translate(6576.787 1137)"/></g></svg>