<svg xmlns="http://www.w3.org/2000/svg" width="19.705" height="19.724" viewBox="0 0 19.705 19.724"><defs><style>.a{fill:#ecf2ff;}</style></defs><g transform="translate(0.538 0.507)"><path class="a" d="M-6551.547-1106.9h0a7.525,7.525,0,0,1-2.388-1.99c.67-.129,1.339-.236,1.988-.318-.01.124-.016.251-.016.379a4.621,4.621,0,0,0,.417,1.928Zm-2.66-2.353h0a7.429,7.429,0,0,1-1.339-4.062h3.256a13.527,13.527,0,0,0,.458,3.38c-.024.1-.046.206-.064.309-.752.093-1.529.218-2.31.374Zm2.616-1.409v0a13.424,13.424,0,0,1-.291-2.65h3.287a4.646,4.646,0,0,0-2.995,2.65Zm11.1-3.061h-3.256a13.409,13.409,0,0,0-.541-3.672c.813-.1,1.639-.227,2.458-.39a7.417,7.417,0,0,1,1.339,4.061Zm-3.662,0h-3.664v-3.45c1.027-.006,2.076-.065,3.118-.176a13.013,13.013,0,0,1,.546,3.625Zm-4.07,0h-3.662a12.961,12.961,0,0,1,.544-3.626c1.037.11,2.086.17,3.118.176v3.449Zm-4.07,0h-3.256a7.43,7.43,0,0,1,1.341-4.062c.81.162,1.636.293,2.457.39a13.532,13.532,0,0,0-.542,3.671Zm4.477-3.858h0V-1121a3.519,3.519,0,0,1,2.5,2.137,8.4,8.4,0,0,1,.49,1.124c-.993.1-2,.156-2.985.163Zm-.406,0h0c-1.01-.007-2.014-.062-2.985-.163a8.5,8.5,0,0,1,.49-1.124,3.518,3.518,0,0,1,2.5-2.137v3.423Zm3.809-.209h0a8.942,8.942,0,0,0-.545-1.268,5.271,5.271,0,0,0-1.428-1.779,7.565,7.565,0,0,1,4.291,2.69c-.769.147-1.548.267-2.316.357Zm-7.209,0h0c-.778-.091-1.558-.211-2.316-.357a7.555,7.555,0,0,1,4.291-2.69,5.27,5.27,0,0,0-1.428,1.779,8.942,8.942,0,0,0-.545,1.268Z" transform="translate(6555.009 1120.493)"/><path class="a" d="M3.754,8.134l-.519.515a1.161,1.161,0,0,1-1.63,0,1.128,1.128,0,0,1,0-1.6L3.515,5.151c.4-.392,1.14-.97,1.683-.432a.635.635,0,0,0,.9-.9C5.17,2.9,3.807,3.071,2.62,4.249L.71,6.143a2.4,2.4,0,0,0,0,3.407,2.435,2.435,0,0,0,3.42,0l.519-.515a.635.635,0,1,0-.9-.9ZM9.541.775A2.269,2.269,0,0,0,6.248.648L5.6,1.29a.635.635,0,1,0,.9.9l.646-.641a1.029,1.029,0,0,1,1.5.126,1.128,1.128,0,0,1,0,1.6L6.609,5.3c-.931.924-1.368.49-1.555.305a.635.635,0,1,0-.9.9,2,2,0,0,0,1.427.635A2.8,2.8,0,0,0,7.5,6.2L9.541,4.182a2.4,2.4,0,0,0,0-3.407Z" transform="translate(11.918 4.719) rotate(45)"/></g></svg>